<?xml version="1.0" encoding="iso-8859-1"?>
<!-- Generator: Adobe Illustrator 19.0.0, SVG Export Plug-In . SVG Version: 6.00 Build 0)  -->
<svg xmlns="http://www.w3.org/2000/svg" xmlns:xlink="http://www.w3.org/1999/xlink" version="1.1" id="Capa_1" x="0px" y="0px" viewBox="0 0 512 512" style="enable-background:new 0 0 512 512;" xml:space="preserve" width="512px" height="512px">
<g>
	<g>
		<path d="M271.001,30.001h138.006V0H241v101.691H94.993v72.678h20.081l5.978,86.905l11.268,163.821L138.299,512h235.402    l5.978-86.905l11.269-163.821l5.978-86.905h20.081v-72.678H271.001V30.001z M345.692,481.999H166.308l-3.915-56.904h187.214    L345.692,481.999z M351.671,395.094H160.33l-9.205-133.819h209.752L351.671,395.094z M362.94,231.272H149.06l-3.914-56.904    h221.707L362.94,231.272z M387.007,131.692v12.676H124.994v-12.676H387.007z" fill="#e6e9ed"/>
	</g>
</g>
<g>
</g>
<g>
</g>
<g>
</g>
<g>
</g>
<g>
</g>
<g>
</g>
<g>
</g>
<g>
</g>
<g>
</g>
<g>
</g>
<g>
</g>
<g>
</g>
<g>
</g>
<g>
</g>
<g>
</g>
</svg>
